<?xml version="1.0" encoding="UTF-8" standalone="no"?><!DOCTYPE svg PUBLIC "-//W3C//DTD SVG 1.1//EN" "http://www.w3.org/Graphics/SVG/1.1/DTD/svg11.dtd"><!-- Generated by graphviz version 2.40.1 (20161225.0304)
 --><!-- Title: astgraph Pages: 1 --><svg xmlns="http://www.w3.org/2000/svg" xmlns:xlink="http://www.w3.org/1999/xlink" width="1885pt" height="175pt" viewBox="0.00 0.00 1884.67 175.21">
<g id="graph0" class="graph" transform="scale(1 1) rotate(0) translate(4 171.2077)">
<title>astgraph</title>
<polygon fill="#ffffff" stroke="transparent" points="-4,4 -4,-171.2077 1880.6688,-171.2077 1880.6688,4 -4,4"/>
<text text-anchor="middle" x="938.3344" y="-150.6077" font-family="Times,serif" font-size="14.00" fill="#000000">dot_expression2</text>
<!-- node11 -->
<g id="node1" class="node">
<title>node11</title>
<ellipse fill="none" stroke="#000000" cx="97.5479" cy="-36.2039" rx="97.5959" ry="36.4089"/>
<text text-anchor="middle" x="97.5479" y="-25.4039" font-family="Times,serif" font-size="36.00" fill="#000000">program</text>
</g>
<!-- node12 -->
<g id="node2" class="node">
<title>node12</title>
<ellipse fill="none" stroke="#000000" cx="269.2858" cy="-36.2039" rx="38.3809" ry="36.4089"/>
<text text-anchor="middle" x="269.2858" y="-25.4039" font-family="Times,serif" font-size="36.00" fill="#000000">int</text>
</g>
<!-- node11&#45;&gt;node12 -->
<g id="edge1" class="edge">
<title>node11-&gt;node12</title>
<path fill="none" stroke="#000000" d="M195.4568,-36.2039C204.1512,-36.2039 212.6776,-36.2039 220.6699,-36.2039"/>
<polygon fill="#000000" stroke="#000000" points="220.8381,-39.704 230.8381,-36.2039 220.838,-32.704 220.8381,-39.704"/>
</g>
<!-- node13 -->
<g id="node3" class="node">
<title>node13</title>
<ellipse fill="none" stroke="#000000" cx="390.8299" cy="-36.2039" rx="47.2086" ry="36.4089"/>
<text text-anchor="middle" x="390.8299" y="-25.4039" font-family="Times,serif" font-size="36.00" fill="#000000">ε-5</text>
</g>
<!-- node12&#45;&gt;node13 -->
<g id="edge2" class="edge">
<title>node12-&gt;node13</title>
<path fill="none" stroke="#000000" d="M307.7431,-36.2039C315.8412,-36.2039 324.553,-36.2039 333.1808,-36.2039"/>
<polygon fill="#000000" stroke="#000000" points="333.2285,-39.704 343.2285,-36.2039 333.2284,-32.704 333.2285,-39.704"/>
</g>
<!-- node14 -->
<g id="node4" class="node">
<title>node14</title>
<ellipse fill="none" stroke="#000000" cx="576.4107" cy="-36.2039" rx="102.4539" ry="36.4089"/>
<text text-anchor="middle" x="576.4107" y="-25.4039" font-family="Times,serif" font-size="36.00" fill="#000000">text&lt;ab&gt;</text>
</g>
<!-- node13&#45;&gt;node14 -->
<g id="edge3" class="edge">
<title>node13-&gt;node14</title>
<path fill="none" stroke="#000000" d="M438.6216,-36.2039C446.5806,-36.2039 455.1223,-36.2039 463.9114,-36.2039"/>
<polygon fill="#000000" stroke="#000000" points="463.9219,-39.704 473.9218,-36.2039 463.9218,-32.704 463.9219,-39.704"/>
</g>
<!-- node15 -->
<g id="node5" class="node">
<title>node15</title>
<ellipse fill="none" stroke="#000000" cx="761.9915" cy="-68.2039" rx="47.2086" ry="36.4089"/>
<text text-anchor="middle" x="761.9915" y="-57.4039" font-family="Times,serif" font-size="36.00" fill="#000000">ε-6</text>
</g>
<!-- node14&#45;&gt;node15 -->
<g id="edge4" class="edge">
<title>node14-&gt;node15</title>
<path fill="none" stroke="#000000" d="M668.3856,-52.0632C681.0745,-54.2512 693.7837,-56.4427 705.564,-58.474"/>
<polygon fill="#000000" stroke="#000000" points="705.2041,-61.9635 715.6534,-60.2137 706.3936,-55.0653 705.2041,-61.9635"/>
</g>
<!-- node16 -->
<g id="node6" class="node">
<title>node16</title>
<ellipse fill="none" stroke="#000000" cx="1189.6651" cy="-42.2039" rx="47.2086" ry="36.4089"/>
<text text-anchor="middle" x="1189.6651" y="-31.4039" font-family="Times,serif" font-size="36.00" fill="#000000">ε-7</text>
</g>
<!-- node14&#45;&gt;node16 -->
<g id="edge5" class="edge">
<title>node14-&gt;node16</title>
<path fill="none" stroke="#000000" d="M674.4959,-25.8346C687.9689,-24.745 701.6358,-23.8139 714.6374,-23.2039 865.3175,-16.1339 1042.9637,-28.8427 1132.2737,-36.6927"/>
<polygon fill="#000000" stroke="#000000" points="1132.1882,-40.1989 1142.4595,-37.6008 1132.8098,-33.2266 1132.1882,-40.1989"/>
</g>
<!-- node17 -->
<g id="node7" class="node">
<title>node17</title>
<ellipse fill="none" stroke="#000000" cx="975.8283" cy="-106.2039" rx="130.4654" ry="36.4089"/>
<text text-anchor="middle" x="975.8283" y="-95.4039" font-family="Times,serif" font-size="36.00" fill="#000000">range&lt;0-9&gt;</text>
</g>
<!-- node15&#45;&gt;node17 -->
<g id="edge6" class="edge">
<title>node15-&gt;node17</title>
<path fill="none" stroke="#000000" d="M808.1277,-76.4025C822.3938,-78.9377 838.822,-81.8571 855.696,-84.8557"/>
<polygon fill="#000000" stroke="#000000" points="855.2115,-88.3243 865.6697,-86.6281 856.4364,-81.4323 855.2115,-88.3243"/>
</g>
<!-- node16&#45;&gt;node15 -->
<g id="edge7" class="edge">
<title>node16-&gt;node15</title>
<path fill="none" stroke="#000000" d="M1142.2971,-44.3875C1075.8906,-47.5469 951.3562,-53.8291 845.3456,-61.2039 836.9114,-61.7906 828.0024,-62.4725 819.2708,-63.1759"/>
<polygon fill="#000000" stroke="#000000" points="818.8214,-59.7009 809.1412,-64.0072 819.3939,-66.6775 818.8214,-59.7009"/>
</g>
<!-- node18 -->
<g id="node8" class="node">
<title>node18</title>
<ellipse fill="none" stroke="#000000" cx="1320.3733" cy="-42.2039" rx="47.2086" ry="36.4089"/>
<text text-anchor="middle" x="1320.3733" y="-31.4039" font-family="Times,serif" font-size="36.00" fill="#000000">ε-8</text>
</g>
<!-- node16&#45;&gt;node18 -->
<g id="edge8" class="edge">
<title>node16-&gt;node18</title>
<path fill="none" stroke="#000000" d="M1237.2235,-42.2039C1245.4227,-42.2039 1254.0265,-42.2039 1262.4626,-42.2039"/>
<polygon fill="#000000" stroke="#000000" points="1262.6313,-45.704 1272.6313,-42.2039 1262.6312,-38.704 1262.6313,-45.704"/>
</g>
<!-- node17&#45;&gt;node16 -->
<g id="edge9" class="edge">
<title>node17-&gt;node16</title>
<path fill="none" stroke="#000000" d="M1064.6567,-79.6181C1088.8373,-72.381 1114.2893,-64.7634 1135.8701,-58.3044"/>
<polygon fill="#000000" stroke="#000000" points="1136.9182,-61.6442 1145.4948,-55.4238 1134.9111,-54.9381 1136.9182,-61.6442"/>
</g>
<!-- node19 -->
<g id="node9" class="node">
<title>node19</title>
<ellipse fill="none" stroke="#000000" cx="1493.2262" cy="-42.2039" rx="89.4976" ry="36.4089"/>
<text text-anchor="middle" x="1493.2262" y="-31.4039" font-family="Times,serif" font-size="36.00" fill="#000000">text&lt;c&gt;</text>
</g>
<!-- node18&#45;&gt;node19 -->
<g id="edge10" class="edge">
<title>node18-&gt;node19</title>
<path fill="none" stroke="#000000" d="M1368.0637,-42.2039C1376.1228,-42.2039 1384.7484,-42.2039 1393.5622,-42.2039"/>
<polygon fill="#000000" stroke="#000000" points="1393.5731,-45.704 1403.5731,-42.2039 1393.573,-38.704 1393.5731,-45.704"/>
</g>
<!-- node20 -->
<g id="node10" class="node">
<title>node20</title>
<ellipse fill="none" stroke="#000000" cx="1666.0791" cy="-42.2039" rx="47.2086" ry="36.4089"/>
<text text-anchor="middle" x="1666.0791" y="-31.4039" font-family="Times,serif" font-size="36.00" fill="#000000">ε-9</text>
</g>
<!-- node19&#45;&gt;node20 -->
<g id="edge11" class="edge">
<title>node19-&gt;node20</title>
<path fill="none" stroke="#000000" d="M1582.9435,-42.2039C1591.6136,-42.2039 1600.2394,-42.2039 1608.4713,-42.2039"/>
<polygon fill="#000000" stroke="#000000" points="1608.6614,-45.704 1618.6614,-42.2039 1608.6614,-38.704 1608.6614,-45.704"/>
</g>
<!-- node21 -->
<g id="node11" class="node">
<title>node21</title>
<ellipse fill="none" stroke="#000000" cx="1813.051" cy="-42.2039" rx="63.7359" ry="36.4089"/>
<text text-anchor="middle" x="1813.051" y="-31.4039" font-family="Times,serif" font-size="36.00" fill="#000000">END</text>
</g>
<!-- node20&#45;&gt;node21 -->
<g id="edge12" class="edge">
<title>node20-&gt;node21</title>
<path fill="none" stroke="#000000" d="M1713.7966,-42.2039C1721.9296,-42.2039 1730.5447,-42.2039 1739.1672,-42.2039"/>
<polygon fill="#000000" stroke="#000000" points="1739.2641,-45.704 1749.264,-42.2039 1739.264,-38.704 1739.2641,-45.704"/>
</g>
</g>
</svg>