<?xml version="1.0" encoding="UTF-8" standalone="no"?><!DOCTYPE svg PUBLIC "-//W3C//DTD SVG 1.1//EN" "http://www.w3.org/Graphics/SVG/1.1/DTD/svg11.dtd"><!-- Generated by graphviz version 2.40.1 (20161225.0304)
 --><!-- Title: astgraph Pages: 1 --><svg xmlns="http://www.w3.org/2000/svg" xmlns:xlink="http://www.w3.org/1999/xlink" width="2645pt" height="718pt" viewBox="0.00 0.00 2644.54 718.00">
<g id="graph0" class="graph" transform="scale(1 1) rotate(0) translate(4 714.0039)">
<title>astgraph</title>
<polygon fill="#ffffff" stroke="transparent" points="-4,4 -4,-714.0039 2640.5362,-714.0039 2640.5362,4 -4,4"/>
<text text-anchor="middle" x="1318.2681" y="-693.4039" font-family="Times,serif" font-size="14.00" fill="#000000">dot_expression5</text>
<!-- node58 -->
<g id="node1" class="node">
<title>node58</title>
<ellipse fill="none" stroke="#000000" cx="97.5479" cy="-383" rx="97.5959" ry="36.4089"/>
<text text-anchor="middle" x="97.5479" y="-372.2" font-family="Times,serif" font-size="36.00" fill="#000000">program</text>
</g>
<!-- node59 -->
<g id="node2" class="node">
<title>node59</title>
<ellipse fill="none" stroke="#000000" cx="301.7599" cy="-553" rx="38.3809" ry="36.4089"/>
<text text-anchor="middle" x="301.7599" y="-542.2" font-family="Times,serif" font-size="36.00" fill="#000000">int</text>
</g>
<!-- node58&#45;&gt;node59 -->
<g id="edge1" class="edge">
<title>node58-&gt;node59</title>
<path fill="none" stroke="#000000" d="M137.4068,-416.1813C174.4205,-446.994 229.0815,-492.4976 265.05,-522.4402"/>
<polygon fill="#000000" stroke="#000000" points="262.9497,-525.2458 272.8745,-528.9538 267.4283,-519.866 262.9497,-525.2458"/>
</g>
<!-- node60 -->
<g id="node3" class="node">
<title>node60</title>
<ellipse fill="none" stroke="#000000" cx="301.7599" cy="-431" rx="70.8284" ry="36.4089"/>
<text text-anchor="middle" x="301.7599" y="-420.2" font-family="Times,serif" font-size="36.00" fill="#000000">factor</text>
</g>
<!-- node58&#45;&gt;node60 -->
<g id="edge2" class="edge">
<title>node58-&gt;node60</title>
<path fill="none" stroke="#000000" d="M180.0201,-402.3851C195.7294,-406.0776 212.0831,-409.9215 227.517,-413.5492"/>
<polygon fill="#000000" stroke="#000000" points="226.9749,-417.0171 237.5105,-415.8982 228.5766,-410.2028 226.9749,-417.0171"/>
</g>
<!-- node61 -->
<g id="node4" class="node">
<title>node61</title>
<ellipse fill="none" stroke="#000000" cx="301.7599" cy="-338" rx="57.9282" ry="36.4089"/>
<text text-anchor="middle" x="301.7599" y="-327.2" font-family="Times,serif" font-size="36.00" fill="#000000">term</text>
</g>
<!-- node58&#45;&gt;node61 -->
<g id="edge3" class="edge">
<title>node58-&gt;node61</title>
<path fill="none" stroke="#000000" d="M181.4928,-364.502C199.9768,-360.4288 219.2813,-356.1749 236.8771,-352.2975"/>
<polygon fill="#000000" stroke="#000000" points="238.0082,-355.6323 247.0207,-350.0623 236.5017,-348.7963 238.0082,-355.6323"/>
</g>
<!-- node62 -->
<g id="node5" class="node">
<title>node62</title>
<ellipse fill="none" stroke="#000000" cx="301.7599" cy="-208" rx="56.5873" ry="36.4089"/>
<text text-anchor="middle" x="301.7599" y="-197.2" font-family="Times,serif" font-size="36.00" fill="#000000">expr</text>
</g>
<!-- node58&#45;&gt;node62 -->
<g id="edge4" class="edge">
<title>node58-&gt;node62</title>
<path fill="none" stroke="#000000" d="M136.4393,-349.6719C171.7276,-319.4315 223.6238,-274.9589 259.8278,-243.9338"/>
<polygon fill="#000000" stroke="#000000" points="262.4431,-246.3019 267.759,-237.1372 257.8882,-240.9866 262.4431,-246.3019"/>
</g>
<!-- node63 -->
<g id="node6" class="node">
<title>node63</title>
<ellipse fill="none" stroke="#000000" cx="468.5059" cy="-585" rx="60.1641" ry="36.4089"/>
<text text-anchor="middle" x="468.5059" y="-574.2" font-family="Times,serif" font-size="36.00" fill="#000000">ε-28</text>
</g>
<!-- node59&#45;&gt;node63 -->
<g id="edge5" class="edge">
<title>node59-&gt;node63</title>
<path fill="none" stroke="#000000" d="M339.5971,-560.2613C357.8463,-563.7635 380.2943,-568.0714 401.315,-572.1055"/>
<polygon fill="#000000" stroke="#000000" points="400.6919,-575.5497 411.1724,-573.9972 402.0113,-568.6752 400.6919,-575.5497"/>
</g>
<!-- node64 -->
<g id="node7" class="node">
<title>node64</title>
<ellipse fill="none" stroke="#000000" cx="695.0706" cy="-521" rx="60.1641" ry="36.4089"/>
<text text-anchor="middle" x="695.0706" y="-510.2" font-family="Times,serif" font-size="36.00" fill="#000000">ε-31</text>
</g>
<!-- node60&#45;&gt;node64 -->
<g id="edge6" class="edge">
<title>node60-&gt;node64</title>
<path fill="none" stroke="#000000" d="M353.47,-455.8023C370.6375,-463.2243 390.0605,-470.7697 408.4239,-476 480.8642,-496.6325 566.4705,-508.5146 625.1507,-514.8294"/>
<polygon fill="#000000" stroke="#000000" points="625.1098,-518.3442 635.4205,-515.9073 625.8406,-511.3825 625.1098,-518.3442"/>
</g>
<!-- node65 -->
<g id="node8" class="node">
<title>node65</title>
<ellipse fill="none" stroke="#000000" cx="468.5059" cy="-431" rx="60.1641" ry="36.4089"/>
<text text-anchor="middle" x="468.5059" y="-420.2" font-family="Times,serif" font-size="36.00" fill="#000000">ε-32</text>
</g>
<!-- node60&#45;&gt;node65 -->
<g id="edge7" class="edge">
<title>node60-&gt;node65</title>
<path fill="none" stroke="#000000" d="M372.4752,-431C380.9312,-431 389.5652,-431 398.018,-431"/>
<polygon fill="#000000" stroke="#000000" points="398.2147,-434.5001 408.2147,-431 398.2146,-427.5001 398.2147,-434.5001"/>
</g>
<!-- node66 -->
<g id="node9" class="node">
<title>node66</title>
<ellipse fill="none" stroke="#000000" cx="468.5059" cy="-338" rx="60.1641" ry="36.4089"/>
<text text-anchor="middle" x="468.5059" y="-327.2" font-family="Times,serif" font-size="36.00" fill="#000000">ε-36</text>
</g>
<!-- node61&#45;&gt;node66 -->
<g id="edge8" class="edge">
<title>node61-&gt;node66</title>
<path fill="none" stroke="#000000" d="M360.0795,-338C372.381,-338 385.4846,-338 398.1749,-338"/>
<polygon fill="#000000" stroke="#000000" points="398.2405,-341.5001 408.2405,-338 398.2404,-334.5001 398.2405,-341.5001"/>
</g>
<!-- node67 -->
<g id="node10" class="node">
<title>node67</title>
<ellipse fill="none" stroke="#000000" cx="468.5059" cy="-129" rx="60.1641" ry="36.4089"/>
<text text-anchor="middle" x="468.5059" y="-118.2" font-family="Times,serif" font-size="36.00" fill="#000000">ε-46</text>
</g>
<!-- node62&#45;&gt;node67 -->
<g id="edge9" class="edge">
<title>node62-&gt;node67</title>
<path fill="none" stroke="#000000" d="M347.3239,-186.4129C367.3151,-176.9416 390.9858,-165.727 412.0784,-155.7339"/>
<polygon fill="#000000" stroke="#000000" points="413.7142,-158.8319 421.2527,-151.3874 410.7171,-152.506 413.7142,-158.8319"/>
</g>
<!-- node68 -->
<g id="node11" class="node">
<title>node68</title>
<ellipse fill="none" stroke="#000000" cx="695.0706" cy="-649" rx="130.4654" ry="36.4089"/>
<text text-anchor="middle" x="695.0706" y="-638.2" font-family="Times,serif" font-size="36.00" fill="#000000">range&lt;0-9&gt;</text>
</g>
<!-- node63&#45;&gt;node68 -->
<g id="edge10" class="edge">
<title>node63-&gt;node68</title>
<path fill="none" stroke="#000000" d="M523.0621,-600.411C544.3313,-606.4192 569.4182,-613.5057 593.7595,-620.3816"/>
<polygon fill="#000000" stroke="#000000" points="592.8279,-623.7554 603.4028,-623.1057 594.7309,-617.019 592.8279,-623.7554"/>
</g>
<!-- node69 -->
<g id="node12" class="node">
<title>node69</title>
<ellipse fill="none" stroke="#000000" cx="1077.7993" cy="-567" rx="38.3809" ry="36.4089"/>
<text text-anchor="middle" x="1077.7993" y="-556.2" font-family="Times,serif" font-size="36.00" fill="#000000">int</text>
</g>
<!-- node64&#45;&gt;node69 -->
<g id="edge11" class="edge">
<title>node64-&gt;node69</title>
<path fill="none" stroke="#000000" d="M754.0332,-528.0867C829.6232,-537.1718 959.2736,-552.7544 1029.3844,-561.181"/>
<polygon fill="#000000" stroke="#000000" points="1029.3495,-564.7019 1039.6957,-562.4203 1030.1849,-557.752 1029.3495,-564.7019"/>
</g>
<!-- node70 -->
<g id="node13" class="node">
<title>node70</title>
<ellipse fill="none" stroke="#000000" cx="695.0706" cy="-431" rx="86.8467" ry="36.4089"/>
<text text-anchor="middle" x="695.0706" y="-420.2" font-family="Times,serif" font-size="36.00" fill="#000000">text&lt;(&gt;</text>
</g>
<!-- node65&#45;&gt;node70 -->
<g id="edge12" class="edge">
<title>node65-&gt;node70</title>
<path fill="none" stroke="#000000" d="M528.6262,-431C549.962,-431 574.5516,-431 598.1707,-431"/>
<polygon fill="#000000" stroke="#000000" points="598.2214,-434.5001 608.2214,-431 598.2213,-427.5001 598.2214,-434.5001"/>
</g>
<!-- node71 -->
<g id="node14" class="node">
<title>node71</title>
<ellipse fill="none" stroke="#000000" cx="695.0706" cy="-326" rx="70.8284" ry="36.4089"/>
<text text-anchor="middle" x="695.0706" y="-315.2" font-family="Times,serif" font-size="36.00" fill="#000000">factor</text>
</g>
<!-- node66&#45;&gt;node71 -->
<g id="edge13" class="edge">
<title>node66-&gt;node71</title>
<path fill="none" stroke="#000000" d="M528.6262,-334.8157C554.8966,-333.4243 586.0998,-331.7716 614.3504,-330.2753"/>
<polygon fill="#000000" stroke="#000000" points="614.8095,-333.756 624.6103,-329.7319 614.4392,-326.7658 614.8095,-333.756"/>
</g>
<!-- node72 -->
<g id="node15" class="node">
<title>node72</title>
<ellipse fill="none" stroke="#000000" cx="695.0706" cy="-83" rx="57.9282" ry="36.4089"/>
<text text-anchor="middle" x="695.0706" y="-72.2" font-family="Times,serif" font-size="36.00" fill="#000000">term</text>
</g>
<!-- node67&#45;&gt;node72 -->
<g id="edge14" class="edge">
<title>node67-&gt;node72</title>
<path fill="none" stroke="#000000" d="M525.6777,-117.3923C557.3973,-110.9521 596.9691,-102.9178 629.8869,-96.2344"/>
<polygon fill="#000000" stroke="#000000" points="630.7694,-99.6267 639.873,-94.2069 629.3765,-92.7667 630.7694,-99.6267"/>
</g>
<!-- node73 -->
<g id="node16" class="node">
<title>node73</title>
<ellipse fill="none" stroke="#000000" cx="921.6353" cy="-640" rx="60.1641" ry="36.4089"/>
<text text-anchor="middle" x="921.6353" y="-629.2" font-family="Times,serif" font-size="36.00" fill="#000000">ε-29</text>
</g>
<!-- node68&#45;&gt;node73 -->
<g id="edge15" class="edge">
<title>node68-&gt;node73</title>
<path fill="none" stroke="#000000" d="M824.2366,-643.869C833.5219,-643.5002 842.662,-643.1371 851.4007,-642.79"/>
<polygon fill="#000000" stroke="#000000" points="851.6061,-646.2847 861.4593,-642.3904 851.3282,-639.2902 851.6061,-646.2847"/>
</g>
<!-- node74 -->
<g id="node17" class="node">
<title>node74</title>
<ellipse fill="none" stroke="#000000" cx="1611.2344" cy="-538" rx="60.1641" ry="36.4089"/>
<text text-anchor="middle" x="1611.2344" y="-527.2" font-family="Times,serif" font-size="36.00" fill="#000000">ε-35</text>
</g>
<!-- node69&#45;&gt;node74 -->
<g id="edge16" class="edge">
<title>node69-&gt;node74</title>
<path fill="none" stroke="#000000" d="M1115.2397,-574.6657C1191.5585,-588.9223 1370.1592,-615.2717 1515.1524,-583 1529.7609,-579.7485 1544.775,-574.028 1558.4656,-567.7333"/>
<polygon fill="#000000" stroke="#000000" points="1560.2029,-570.7821 1567.7111,-563.307 1557.1801,-564.4684 1560.2029,-570.7821"/>
</g>
<!-- node75 -->
<g id="node18" class="node">
<title>node75</title>
<ellipse fill="none" stroke="#000000" cx="921.6353" cy="-440" rx="60.1641" ry="36.4089"/>
<text text-anchor="middle" x="921.6353" y="-429.2" font-family="Times,serif" font-size="36.00" fill="#000000">ε-33</text>
</g>
<!-- node70&#45;&gt;node75 -->
<g id="edge17" class="edge">
<title>node70-&gt;node75</title>
<path fill="none" stroke="#000000" d="M781.3713,-434.4282C804.5784,-435.3501 829.3896,-436.3357 851.5931,-437.2177"/>
<polygon fill="#000000" stroke="#000000" points="851.4651,-440.7152 861.5961,-437.615 851.743,-433.7208 851.4651,-440.7152"/>
</g>
<!-- node76 -->
<g id="node19" class="node">
<title>node76</title>
<ellipse fill="none" stroke="#000000" cx="921.6353" cy="-326" rx="60.1641" ry="36.4089"/>
<text text-anchor="middle" x="921.6353" y="-315.2" font-family="Times,serif" font-size="36.00" fill="#000000">ε-37</text>
</g>
<!-- node71&#45;&gt;node76 -->
<g id="edge18" class="edge">
<title>node71-&gt;node76</title>
<path fill="none" stroke="#000000" d="M765.8251,-326C792.9956,-326 823.9844,-326 851.1313,-326"/>
<polygon fill="#000000" stroke="#000000" points="851.3316,-329.5001 861.3316,-326 851.3315,-322.5001 851.3316,-329.5001"/>
</g>
<!-- node77 -->
<g id="node20" class="node">
<title>node77</title>
<ellipse fill="none" stroke="#000000" cx="2257.0545" cy="-326" rx="60.1641" ry="36.4089"/>
<text text-anchor="middle" x="2257.0545" y="-315.2" font-family="Times,serif" font-size="36.00" fill="#000000">ε-44</text>
</g>
<!-- node71&#45;&gt;node77 -->
<g id="edge19" class="edge">
<title>node71-&gt;node77</title>
<path fill="none" stroke="#000000" d="M755.8402,-307.2378C787.1589,-298.1661 826.1212,-287.7975 861.5533,-281 956.57,-262.7713 981.0498,-256 1077.7993,-256 1077.7993,-256 1077.7993,-256 1934.1444,-256 2026.8998,-256 2131.3097,-283.9276 2195.6451,-304.5026"/>
<polygon fill="#000000" stroke="#000000" points="2194.6372,-307.8551 2205.2292,-307.6083 2196.7952,-301.196 2194.6372,-307.8551"/>
</g>
<!-- node78 -->
<g id="node21" class="node">
<title>node78</title>
<ellipse fill="none" stroke="#000000" cx="921.6353" cy="-83" rx="60.1641" ry="36.4089"/>
<text text-anchor="middle" x="921.6353" y="-72.2" font-family="Times,serif" font-size="36.00" fill="#000000">ε-47</text>
</g>
<!-- node72&#45;&gt;node78 -->
<g id="edge20" class="edge">
<title>node72-&gt;node78</title>
<path fill="none" stroke="#000000" d="M753.1224,-83C783.0537,-83 819.7958,-83 851.3243,-83"/>
<polygon fill="#000000" stroke="#000000" points="851.3624,-86.5001 861.3623,-83 851.3623,-79.5001 851.3624,-86.5001"/>
</g>
<!-- node79 -->
<g id="node22" class="node">
<title>node79</title>
<ellipse fill="none" stroke="#000000" cx="2257.0545" cy="-70" rx="60.1641" ry="36.4089"/>
<text text-anchor="middle" x="2257.0545" y="-59.2" font-family="Times,serif" font-size="36.00" fill="#000000">ε-54</text>
</g>
<!-- node72&#45;&gt;node79 -->
<g id="edge21" class="edge">
<title>node72-&gt;node79</title>
<path fill="none" stroke="#000000" d="M745.3895,-64.8879C817.8559,-40.466 956.2663,0 1077.7993,0 1077.7993,0 1077.7993,0 1934.1444,0 2026.8998,0 2131.3097,-27.9276 2195.6451,-48.5026"/>
<polygon fill="#000000" stroke="#000000" points="2194.6372,-51.8551 2205.2292,-51.6083 2196.7952,-45.196 2194.6372,-51.8551"/>
</g>
<!-- node73&#45;&gt;node63 -->
<g id="edge22" class="edge">
<title>node73-&gt;node63</title>
<path fill="none" stroke="#000000" d="M873.1198,-618.5415C858.1488,-612.8195 841.4213,-607.313 825.5533,-604 727.6744,-583.5645 611.611,-581.3233 538.9978,-582.4708"/>
<polygon fill="#000000" stroke="#000000" points="538.5405,-578.9785 528.607,-582.6629 538.67,-585.9773 538.5405,-578.9785"/>
</g>
<!-- node80 -->
<g id="node23" class="node">
<title>node80</title>
<ellipse fill="none" stroke="#000000" cx="1767.3984" cy="-563" rx="60.1641" ry="36.4089"/>
<text text-anchor="middle" x="1767.3984" y="-552.2" font-family="Times,serif" font-size="36.00" fill="#000000">ε-30</text>
</g>
<!-- node73&#45;&gt;node80 -->
<g id="edge23" class="edge">
<title>node73-&gt;node80</title>
<path fill="none" stroke="#000000" d="M981.802,-640C1044.6959,-640 1146.2567,-640 1233.9634,-640 1233.9634,-640 1233.9634,-640 1422.5989,-640 1523.8816,-640 1637.9632,-607.9626 1706.1916,-585.2183"/>
<polygon fill="#000000" stroke="#000000" points="1707.5631,-588.4495 1715.9184,-581.9349 1705.3242,-581.8171 1707.5631,-588.4495"/>
</g>
<!-- node81 -->
<g id="node24" class="node">
<title>node81</title>
<ellipse fill="none" stroke="#000000" cx="2572.9184" cy="-358" rx="63.7359" ry="36.4089"/>
<text text-anchor="middle" x="2572.9184" y="-347.2" font-family="Times,serif" font-size="36.00" fill="#000000">END</text>
</g>
<!-- node74&#45;&gt;node81 -->
<g id="edge24" class="edge">
<title>node74-&gt;node81</title>
<path fill="none" stroke="#000000" d="M1653.6218,-512.1117C1713.7396,-477.9239 1828.2617,-422 1934.1444,-422 1934.1444,-422 1934.1444,-422 2257.0545,-422 2345.2179,-422 2444.516,-397.7535 2507.841,-379.1084"/>
<polygon fill="#000000" stroke="#000000" points="2509.1073,-382.3831 2517.6882,-376.1686 2507.1048,-375.6756 2509.1073,-382.3831"/>
</g>
<!-- node82 -->
<g id="node25" class="node">
<title>node82</title>
<ellipse fill="none" stroke="#000000" cx="1077.7993" cy="-458" rx="56.5873" ry="36.4089"/>
<text text-anchor="middle" x="1077.7993" y="-447.2" font-family="Times,serif" font-size="36.00" fill="#000000">expr</text>
</g>
<!-- node75&#45;&gt;node82 -->
<g id="edge25" class="edge">
<title>node75-&gt;node82</title>
<path fill="none" stroke="#000000" d="M980.6742,-446.805C990.8446,-447.9773 1001.4741,-449.2025 1011.8136,-450.3943"/>
<polygon fill="#000000" stroke="#000000" points="1011.6936,-453.9035 1022.0286,-451.5717 1012.4952,-446.9496 1011.6936,-453.9035"/>
</g>
<!-- node83 -->
<g id="node26" class="node">
<title>node83</title>
<ellipse fill="none" stroke="#000000" cx="1077.7993" cy="-358" rx="60.1641" ry="36.4089"/>
<text text-anchor="middle" x="1077.7993" y="-347.2" font-family="Times,serif" font-size="36.00" fill="#000000">ε-38</text>
</g>
<!-- node76&#45;&gt;node83 -->
<g id="edge26" class="edge">
<title>node76-&gt;node83</title>
<path fill="none" stroke="#000000" d="M978.8983,-337.7339C989.2551,-339.8562 1000.1391,-342.0864 1010.746,-344.2599"/>
<polygon fill="#000000" stroke="#000000" points="1010.3052,-347.7423 1020.8043,-346.321 1011.7105,-340.8847 1010.3052,-347.7423"/>
</g>
<!-- node77&#45;&gt;node76 -->
<g id="edge27" class="edge">
<title>node77-&gt;node76</title>
<path fill="none" stroke="#000000" d="M2198.8917,-316.7443C2134.3719,-307.2935 2027.0978,-294 1934.1444,-294 1233.9634,-294 1233.9634,-294 1233.9634,-294 1149.6724,-294 1053.2487,-305.6767 990.1077,-314.9231"/>
<polygon fill="#000000" stroke="#000000" points="989.257,-311.511 979.8798,-316.4423 990.2855,-318.435 989.257,-311.511"/>
</g>
<!-- node84 -->
<g id="node27" class="node">
<title>node84</title>
<ellipse fill="none" stroke="#000000" cx="2413.2185" cy="-326" rx="60.1641" ry="36.4089"/>
<text text-anchor="middle" x="2413.2185" y="-315.2" font-family="Times,serif" font-size="36.00" fill="#000000">ε-45</text>
</g>
<!-- node77&#45;&gt;node84 -->
<g id="edge28" class="edge">
<title>node77-&gt;node84</title>
<path fill="none" stroke="#000000" d="M2317.4316,-326C2325.7302,-326 2334.3104,-326 2342.77,-326"/>
<polygon fill="#000000" stroke="#000000" points="2343.002,-329.5001 2353.002,-326 2343.002,-322.5001 2343.002,-329.5001"/>
</g>
<!-- node85 -->
<g id="node28" class="node">
<title>node85</title>
<ellipse fill="none" stroke="#000000" cx="1077.7993" cy="-102" rx="60.1641" ry="36.4089"/>
<text text-anchor="middle" x="1077.7993" y="-91.2" font-family="Times,serif" font-size="36.00" fill="#000000">ε-48</text>
</g>
<!-- node78&#45;&gt;node85 -->
<g id="edge29" class="edge">
<title>node78-&gt;node85</title>
<path fill="none" stroke="#000000" d="M980.6742,-90.1831C989.8082,-91.2944 999.3124,-92.4507 1008.6442,-93.5861"/>
<polygon fill="#000000" stroke="#000000" points="1008.3274,-97.0733 1018.6769,-94.8068 1009.1729,-90.1245 1008.3274,-97.0733"/>
</g>
<!-- node79&#45;&gt;node78 -->
<g id="edge30" class="edge">
<title>node79-&gt;node78</title>
<path fill="none" stroke="#000000" d="M2198.8917,-60.7443C2134.3719,-51.2935 2027.0978,-38 1934.1444,-38 1233.9634,-38 1233.9634,-38 1233.9634,-38 1137.4838,-38 1112.7073,-40.1114 1017.7173,-57 1007.1008,-58.8875 995.9514,-61.3996 985.1596,-64.1196"/>
<polygon fill="#000000" stroke="#000000" points="984.1721,-60.76 975.3748,-66.6641 985.9338,-67.5346 984.1721,-60.76"/>
</g>
<!-- node86 -->
<g id="node29" class="node">
<title>node86</title>
<ellipse fill="none" stroke="#000000" cx="2413.2185" cy="-121" rx="60.1641" ry="36.4089"/>
<text text-anchor="middle" x="2413.2185" y="-110.2" font-family="Times,serif" font-size="36.00" fill="#000000">ε-55</text>
</g>
<!-- node79&#45;&gt;node86 -->
<g id="edge31" class="edge">
<title>node79-&gt;node86</title>
<path fill="none" stroke="#000000" d="M2309.9245,-87.2663C2322.9546,-91.5216 2337.0341,-96.1197 2350.4814,-100.5113"/>
<polygon fill="#000000" stroke="#000000" points="2349.5449,-103.8874 2360.1374,-103.6648 2351.7181,-97.2332 2349.5449,-103.8874"/>
</g>
<!-- node80&#45;&gt;node81 -->
<g id="edge32" class="edge">
<title>node80-&gt;node81</title>
<path fill="none" stroke="#000000" d="M1815.7342,-541.3282C1879.6435,-514.6973 1996.394,-473 2100.8905,-473 2100.8905,-473 2100.8905,-473 2257.0545,-473 2354.5605,-473 2384.1449,-475.4804 2473.3005,-436 2495.0717,-426.3591 2516.2666,-410.8978 2533.4698,-396.2737"/>
<polygon fill="#000000" stroke="#000000" points="2535.8438,-398.8474 2541.0808,-389.6374 2531.2434,-393.5714 2535.8438,-398.8474"/>
</g>
<!-- node87 -->
<g id="node30" class="node">
<title>node87</title>
<ellipse fill="none" stroke="#000000" cx="1233.9634" cy="-538" rx="60.1641" ry="36.4089"/>
<text text-anchor="middle" x="1233.9634" y="-527.2" font-family="Times,serif" font-size="36.00" fill="#000000">ε-34</text>
</g>
<!-- node82&#45;&gt;node87 -->
<g id="edge33" class="edge">
<title>node82-&gt;node87</title>
<path fill="none" stroke="#000000" d="M1122.132,-480.7108C1139.8779,-489.8017 1160.5037,-500.368 1179.1739,-509.9323"/>
<polygon fill="#000000" stroke="#000000" points="1177.665,-513.0918 1188.1609,-514.5362 1180.8566,-506.8618 1177.665,-513.0918"/>
</g>
<!-- node88 -->
<g id="node31" class="node">
<title>node88</title>
<ellipse fill="none" stroke="#000000" cx="1233.9634" cy="-448" rx="60.1641" ry="36.4089"/>
<text text-anchor="middle" x="1233.9634" y="-437.2" font-family="Times,serif" font-size="36.00" fill="#000000">ε-39</text>
</g>
<!-- node83&#45;&gt;node88 -->
<g id="edge34" class="edge">
<title>node83-&gt;node88</title>
<path fill="none" stroke="#000000" d="M1121.2997,-383.07C1140.0046,-393.85 1162.0274,-406.5421 1181.617,-417.8319"/>
<polygon fill="#000000" stroke="#000000" points="1180.0139,-420.9476 1190.4257,-422.9085 1183.5092,-414.8827 1180.0139,-420.9476"/>
</g>
<!-- node89 -->
<g id="node32" class="node">
<title>node89</title>
<ellipse fill="none" stroke="#000000" cx="1233.9634" cy="-358" rx="60.1641" ry="36.4089"/>
<text text-anchor="middle" x="1233.9634" y="-347.2" font-family="Times,serif" font-size="36.00" fill="#000000">ε-40</text>
</g>
<!-- node83&#45;&gt;node89 -->
<g id="edge35" class="edge">
<title>node83-&gt;node89</title>
<path fill="none" stroke="#000000" d="M1138.1764,-358C1146.475,-358 1155.0553,-358 1163.5149,-358"/>
<polygon fill="#000000" stroke="#000000" points="1163.7469,-361.5001 1173.7468,-358 1163.7468,-354.5001 1163.7469,-361.5001"/>
</g>
<!-- node84&#45;&gt;node81 -->
<g id="edge36" class="edge">
<title>node84-&gt;node81</title>
<path fill="none" stroke="#000000" d="M2470.4227,-337.4623C2480.9754,-339.5768 2492.1033,-341.8066 2502.9819,-343.9864"/>
<polygon fill="#000000" stroke="#000000" points="2502.3859,-347.4365 2512.8787,-345.9695 2503.7612,-340.5729 2502.3859,-347.4365"/>
</g>
<!-- node90 -->
<g id="node33" class="node">
<title>node90</title>
<ellipse fill="none" stroke="#000000" cx="1233.9634" cy="-192" rx="60.1641" ry="36.4089"/>
<text text-anchor="middle" x="1233.9634" y="-181.2" font-family="Times,serif" font-size="36.00" fill="#000000">ε-49</text>
</g>
<!-- node85&#45;&gt;node90 -->
<g id="edge37" class="edge">
<title>node85-&gt;node90</title>
<path fill="none" stroke="#000000" d="M1121.2997,-127.07C1140.0046,-137.85 1162.0274,-150.5421 1181.617,-161.8319"/>
<polygon fill="#000000" stroke="#000000" points="1180.0139,-164.9476 1190.4257,-166.9085 1183.5092,-158.8827 1180.0139,-164.9476"/>
</g>
<!-- node91 -->
<g id="node34" class="node">
<title>node91</title>
<ellipse fill="none" stroke="#000000" cx="1233.9634" cy="-102" rx="60.1641" ry="36.4089"/>
<text text-anchor="middle" x="1233.9634" y="-91.2" font-family="Times,serif" font-size="36.00" fill="#000000">ε-50</text>
</g>
<!-- node85&#45;&gt;node91 -->
<g id="edge38" class="edge">
<title>node85-&gt;node91</title>
<path fill="none" stroke="#000000" d="M1138.1764,-102C1146.475,-102 1155.0553,-102 1163.5149,-102"/>
<polygon fill="#000000" stroke="#000000" points="1163.7469,-105.5001 1173.7468,-102 1163.7468,-98.5001 1163.7469,-105.5001"/>
</g>
<!-- node86&#45;&gt;node81 -->
<g id="edge39" class="edge">
<title>node86-&gt;node81</title>
<path fill="none" stroke="#000000" d="M2435.93,-154.7046C2464.4068,-196.9651 2513.2439,-269.441 2544.2617,-315.4726"/>
<polygon fill="#000000" stroke="#000000" points="2541.536,-317.6908 2550.0266,-324.0279 2547.341,-313.7791 2541.536,-317.6908"/>
</g>
<!-- node92 -->
<g id="node35" class="node">
<title>node92</title>
<ellipse fill="none" stroke="#000000" cx="1422.5989" cy="-538" rx="86.8467" ry="36.4089"/>
<text text-anchor="middle" x="1422.5989" y="-527.2" font-family="Times,serif" font-size="36.00" fill="#000000">text&lt;)&gt;</text>
</g>
<!-- node87&#45;&gt;node92 -->
<g id="edge40" class="edge">
<title>node87-&gt;node92</title>
<path fill="none" stroke="#000000" d="M1294.1675,-538C1304.2178,-538 1314.8653,-538 1325.5596,-538"/>
<polygon fill="#000000" stroke="#000000" points="1325.8092,-541.5001 1335.8092,-538 1325.8091,-534.5001 1325.8092,-541.5001"/>
</g>
<!-- node93 -->
<g id="node36" class="node">
<title>node93</title>
<ellipse fill="none" stroke="#000000" cx="1422.5989" cy="-448" rx="90.8538" ry="36.4089"/>
<text text-anchor="middle" x="1422.5989" y="-437.2" font-family="Times,serif" font-size="36.00" fill="#000000">text&lt;*&gt;</text>
</g>
<!-- node88&#45;&gt;node93 -->
<g id="edge41" class="edge">
<title>node88-&gt;node93</title>
<path fill="none" stroke="#000000" d="M1294.1675,-448C1302.8776,-448 1312.0362,-448 1321.2851,-448"/>
<polygon fill="#000000" stroke="#000000" points="1321.3396,-451.5001 1331.3396,-448 1321.3396,-444.5001 1321.3396,-451.5001"/>
</g>
<!-- node94 -->
<g id="node37" class="node">
<title>node94</title>
<ellipse fill="none" stroke="#000000" cx="1422.5989" cy="-358" rx="85.0468" ry="36.4089"/>
<text text-anchor="middle" x="1422.5989" y="-347.2" font-family="Times,serif" font-size="36.00" fill="#000000">text&lt;/&gt;</text>
</g>
<!-- node89&#45;&gt;node94 -->
<g id="edge42" class="edge">
<title>node89-&gt;node94</title>
<path fill="none" stroke="#000000" d="M1294.1675,-358C1304.6516,-358 1315.7856,-358 1326.9446,-358"/>
<polygon fill="#000000" stroke="#000000" points="1327.1818,-361.5001 1337.1818,-358 1327.1817,-354.5001 1327.1818,-361.5001"/>
</g>
<!-- node95 -->
<g id="node38" class="node">
<title>node95</title>
<ellipse fill="none" stroke="#000000" cx="1422.5989" cy="-192" rx="92.607" ry="36.4089"/>
<text text-anchor="middle" x="1422.5989" y="-181.2" font-family="Times,serif" font-size="36.00" fill="#000000">text&lt;+&gt;</text>
</g>
<!-- node90&#45;&gt;node95 -->
<g id="edge43" class="edge">
<title>node90-&gt;node95</title>
<path fill="none" stroke="#000000" d="M1294.1675,-192C1302.3822,-192 1310.996,-192 1319.7082,-192"/>
<polygon fill="#000000" stroke="#000000" points="1319.9627,-195.5001 1329.9627,-192 1319.9627,-188.5001 1319.9627,-195.5001"/>
</g>
<!-- node96 -->
<g id="node39" class="node">
<title>node96</title>
<ellipse fill="none" stroke="#000000" cx="1422.5989" cy="-102" rx="86.8467" ry="36.4089"/>
<text text-anchor="middle" x="1422.5989" y="-91.2" font-family="Times,serif" font-size="36.00" fill="#000000">text&lt;-&gt;</text>
</g>
<!-- node91&#45;&gt;node96 -->
<g id="edge44" class="edge">
<title>node91-&gt;node96</title>
<path fill="none" stroke="#000000" d="M1294.1675,-102C1304.2178,-102 1314.8653,-102 1325.5596,-102"/>
<polygon fill="#000000" stroke="#000000" points="1325.8092,-105.5001 1335.8092,-102 1325.8091,-98.5001 1325.8092,-105.5001"/>
</g>
<!-- node92&#45;&gt;node74 -->
<g id="edge45" class="edge">
<title>node92-&gt;node74</title>
<path fill="none" stroke="#000000" d="M1509.4629,-538C1519.9784,-538 1530.6183,-538 1540.8553,-538"/>
<polygon fill="#000000" stroke="#000000" points="1540.9385,-541.5001 1550.9385,-538 1540.9385,-534.5001 1540.9385,-541.5001"/>
</g>
<!-- node97 -->
<g id="node40" class="node">
<title>node97</title>
<ellipse fill="none" stroke="#000000" cx="1611.2344" cy="-358" rx="60.1641" ry="36.4089"/>
<text text-anchor="middle" x="1611.2344" y="-347.2" font-family="Times,serif" font-size="36.00" fill="#000000">ε-41</text>
</g>
<!-- node93&#45;&gt;node97 -->
<g id="edge46" class="edge">
<title>node93-&gt;node97</title>
<path fill="none" stroke="#000000" d="M1480.9925,-420.1398C1504.4913,-408.9283 1531.4879,-396.0479 1554.7872,-384.9316"/>
<polygon fill="#000000" stroke="#000000" points="1556.3352,-388.071 1563.8534,-380.606 1553.3209,-381.7532 1556.3352,-388.071"/>
</g>
<!-- node94&#45;&gt;node97 -->
<g id="edge47" class="edge">
<title>node94-&gt;node97</title>
<path fill="none" stroke="#000000" d="M1508.0858,-358C1519.0929,-358 1530.2618,-358 1540.9858,-358"/>
<polygon fill="#000000" stroke="#000000" points="1541.1114,-361.5001 1551.1114,-358 1541.1114,-354.5001 1541.1114,-361.5001"/>
</g>
<!-- node98 -->
<g id="node41" class="node">
<title>node98</title>
<ellipse fill="none" stroke="#000000" cx="1611.2344" cy="-102" rx="60.1641" ry="36.4089"/>
<text text-anchor="middle" x="1611.2344" y="-91.2" font-family="Times,serif" font-size="36.00" fill="#000000">ε-51</text>
</g>
<!-- node95&#45;&gt;node98 -->
<g id="edge48" class="edge">
<title>node95-&gt;node98</title>
<path fill="none" stroke="#000000" d="M1481.5084,-163.8936C1504.8811,-152.7423 1531.6473,-139.9718 1554.7731,-128.9383"/>
<polygon fill="#000000" stroke="#000000" points="1556.5878,-131.9505 1564.106,-124.4854 1553.5735,-125.6327 1556.5878,-131.9505"/>
</g>
<!-- node96&#45;&gt;node98 -->
<g id="edge49" class="edge">
<title>node96-&gt;node98</title>
<path fill="none" stroke="#000000" d="M1509.4629,-102C1519.9784,-102 1530.6183,-102 1540.8553,-102"/>
<polygon fill="#000000" stroke="#000000" points="1540.9385,-105.5001 1550.9385,-102 1540.9385,-98.5001 1540.9385,-105.5001"/>
</g>
<!-- node99 -->
<g id="node42" class="node">
<title>node99</title>
<ellipse fill="none" stroke="#000000" cx="1767.3984" cy="-358" rx="60.1641" ry="36.4089"/>
<text text-anchor="middle" x="1767.3984" y="-347.2" font-family="Times,serif" font-size="36.00" fill="#000000">ε-42</text>
</g>
<!-- node97&#45;&gt;node99 -->
<g id="edge50" class="edge">
<title>node97-&gt;node99</title>
<path fill="none" stroke="#000000" d="M1671.6115,-358C1679.9101,-358 1688.4903,-358 1696.9499,-358"/>
<polygon fill="#000000" stroke="#000000" points="1697.1819,-361.5001 1707.1819,-358 1697.1818,-354.5001 1697.1819,-361.5001"/>
</g>
<!-- node100 -->
<g id="node43" class="node">
<title>node100</title>
<ellipse fill="none" stroke="#000000" cx="1767.3984" cy="-102" rx="60.1641" ry="36.4089"/>
<text text-anchor="middle" x="1767.3984" y="-91.2" font-family="Times,serif" font-size="36.00" fill="#000000">ε-52</text>
</g>
<!-- node98&#45;&gt;node100 -->
<g id="edge51" class="edge">
<title>node98-&gt;node100</title>
<path fill="none" stroke="#000000" d="M1671.6115,-102C1679.9101,-102 1688.4903,-102 1696.9499,-102"/>
<polygon fill="#000000" stroke="#000000" points="1697.1819,-105.5001 1707.1819,-102 1697.1818,-98.5001 1697.1819,-105.5001"/>
</g>
<!-- node101 -->
<g id="node44" class="node">
<title>node101</title>
<ellipse fill="none" stroke="#000000" cx="1934.1444" cy="-358" rx="70.8284" ry="36.4089"/>
<text text-anchor="middle" x="1934.1444" y="-347.2" font-family="Times,serif" font-size="36.00" fill="#000000">factor</text>
</g>
<!-- node99&#45;&gt;node101 -->
<g id="edge52" class="edge">
<title>node99-&gt;node101</title>
<path fill="none" stroke="#000000" d="M1827.5975,-358C1835.9117,-358 1844.5597,-358 1853.1736,-358"/>
<polygon fill="#000000" stroke="#000000" points="1853.2478,-361.5001 1863.2478,-358 1853.2477,-354.5001 1853.2478,-361.5001"/>
</g>
<!-- node102 -->
<g id="node45" class="node">
<title>node102</title>
<ellipse fill="none" stroke="#000000" cx="1934.1444" cy="-102" rx="57.9282" ry="36.4089"/>
<text text-anchor="middle" x="1934.1444" y="-91.2" font-family="Times,serif" font-size="36.00" fill="#000000">term</text>
</g>
<!-- node100&#45;&gt;node102 -->
<g id="edge53" class="edge">
<title>node100-&gt;node102</title>
<path fill="none" stroke="#000000" d="M1827.5975,-102C1840.0374,-102 1853.2249,-102 1865.9267,-102"/>
<polygon fill="#000000" stroke="#000000" points="1865.9857,-105.5001 1875.9857,-102 1865.9857,-98.5001 1865.9857,-105.5001"/>
</g>
<!-- node103 -->
<g id="node46" class="node">
<title>node103</title>
<ellipse fill="none" stroke="#000000" cx="2100.8905" cy="-358" rx="60.1641" ry="36.4089"/>
<text text-anchor="middle" x="2100.8905" y="-347.2" font-family="Times,serif" font-size="36.00" fill="#000000">ε-43</text>
</g>
<!-- node101&#45;&gt;node103 -->
<g id="edge54" class="edge">
<title>node101-&gt;node103</title>
<path fill="none" stroke="#000000" d="M2004.8598,-358C2013.3158,-358 2021.9497,-358 2030.4026,-358"/>
<polygon fill="#000000" stroke="#000000" points="2030.5993,-361.5001 2040.5992,-358 2030.5992,-354.5001 2030.5993,-361.5001"/>
</g>
<!-- node104 -->
<g id="node47" class="node">
<title>node104</title>
<ellipse fill="none" stroke="#000000" cx="2100.8905" cy="-102" rx="60.1641" ry="36.4089"/>
<text text-anchor="middle" x="2100.8905" y="-91.2" font-family="Times,serif" font-size="36.00" fill="#000000">ε-53</text>
</g>
<!-- node102&#45;&gt;node104 -->
<g id="edge55" class="edge">
<title>node102-&gt;node104</title>
<path fill="none" stroke="#000000" d="M1992.4641,-102C2004.7656,-102 2017.8692,-102 2030.5595,-102"/>
<polygon fill="#000000" stroke="#000000" points="2030.6251,-105.5001 2040.625,-102 2030.625,-98.5001 2030.6251,-105.5001"/>
</g>
<!-- node103&#45;&gt;node77 -->
<g id="edge56" class="edge">
<title>node103-&gt;node77</title>
<path fill="none" stroke="#000000" d="M2158.1534,-346.2661C2168.5102,-344.1438 2179.3942,-341.9136 2190.0011,-339.7401"/>
<polygon fill="#000000" stroke="#000000" points="2190.9656,-343.1153 2200.0595,-337.679 2189.5604,-336.2577 2190.9656,-343.1153"/>
</g>
<!-- node104&#45;&gt;node79 -->
<g id="edge57" class="edge">
<title>node104-&gt;node79</title>
<path fill="none" stroke="#000000" d="M2158.1534,-90.2661C2168.5102,-88.1438 2179.3942,-85.9136 2190.0011,-83.7401"/>
<polygon fill="#000000" stroke="#000000" points="2190.9656,-87.1153 2200.0595,-81.679 2189.5604,-80.2577 2190.9656,-87.1153"/>
</g>
</g>
</svg>