<?xml version="1.0" encoding="UTF-8" standalone="no"?><!DOCTYPE svg PUBLIC "-//W3C//DTD SVG 1.1//EN" "http://www.w3.org/Graphics/SVG/1.1/DTD/svg11.dtd"><!-- Generated by graphviz version 2.40.1 (20161225.0304)
 --><!-- Title: astgraph Pages: 1 --><svg xmlns="http://www.w3.org/2000/svg" xmlns:xlink="http://www.w3.org/1999/xlink" width="2012pt" height="137pt" viewBox="0.00 0.00 2011.95 137.21">
<g id="graph0" class="graph" transform="scale(1 1) rotate(0) translate(4 133.2077)">
<title>astgraph</title>
<polygon fill="#ffffff" stroke="transparent" points="-4,4 -4,-133.2077 2007.948,-133.2077 2007.948,4 -4,4"/>
<text text-anchor="middle" x="1001.974" y="-112.6077" font-family="Times,serif" font-size="14.00" fill="#000000">dot_expression3</text>
<!-- node22 -->
<g id="node1" class="node">
<title>node22</title>
<ellipse fill="none" stroke="#000000" cx="97.5479" cy="-36.2039" rx="97.5959" ry="36.4089"/>
<text text-anchor="middle" x="97.5479" y="-25.4039" font-family="Times,serif" font-size="36.00" fill="#000000">program</text>
</g>
<!-- node23 -->
<g id="node2" class="node">
<title>node23</title>
<ellipse fill="none" stroke="#000000" cx="269.2858" cy="-36.2039" rx="38.3809" ry="36.4089"/>
<text text-anchor="middle" x="269.2858" y="-25.4039" font-family="Times,serif" font-size="36.00" fill="#000000">int</text>
</g>
<!-- node22&#45;&gt;node23 -->
<g id="edge1" class="edge">
<title>node22-&gt;node23</title>
<path fill="none" stroke="#000000" d="M195.4568,-36.2039C204.1512,-36.2039 212.6776,-36.2039 220.6699,-36.2039"/>
<polygon fill="#000000" stroke="#000000" points="220.8381,-39.704 230.8381,-36.2039 220.838,-32.704 220.8381,-39.704"/>
</g>
<!-- node24 -->
<g id="node3" class="node">
<title>node24</title>
<ellipse fill="none" stroke="#000000" cx="403.5578" cy="-36.2039" rx="60.1641" ry="36.4089"/>
<text text-anchor="middle" x="403.5578" y="-25.4039" font-family="Times,serif" font-size="36.00" fill="#000000">ε-10</text>
</g>
<!-- node23&#45;&gt;node24 -->
<g id="edge2" class="edge">
<title>node23-&gt;node24</title>
<path fill="none" stroke="#000000" d="M307.7628,-36.2039C315.7278,-36.2039 324.3553,-36.2039 333.0584,-36.2039"/>
<polygon fill="#000000" stroke="#000000" points="333.2746,-39.704 343.2745,-36.2039 333.2745,-32.704 333.2746,-39.704"/>
</g>
<!-- node25 -->
<g id="node4" class="node">
<title>node25</title>
<ellipse fill="none" stroke="#000000" cx="601.8666" cy="-36.2039" rx="102.4539" ry="36.4089"/>
<text text-anchor="middle" x="601.8666" y="-25.4039" font-family="Times,serif" font-size="36.00" fill="#000000">text&lt;ab&gt;</text>
</g>
<!-- node24&#45;&gt;node25 -->
<g id="edge3" class="edge">
<title>node24-&gt;node25</title>
<path fill="none" stroke="#000000" d="M463.8647,-36.2039C471.9731,-36.2039 480.4932,-36.2039 489.154,-36.2039"/>
<polygon fill="#000000" stroke="#000000" points="489.3693,-39.704 499.3693,-36.2039 489.3692,-32.704 489.3693,-39.704"/>
</g>
<!-- node26 -->
<g id="node5" class="node">
<title>node26</title>
<ellipse fill="none" stroke="#000000" cx="800.1753" cy="-68.2039" rx="60.1641" ry="36.4089"/>
<text text-anchor="middle" x="800.1753" y="-57.4039" font-family="Times,serif" font-size="36.00" fill="#000000">ε-11</text>
</g>
<!-- node25&#45;&gt;node26 -->
<g id="edge4" class="edge">
<title>node25-&gt;node26</title>
<path fill="none" stroke="#000000" d="M694.924,-51.22C707.4245,-53.2372 720.0546,-55.2752 732.0157,-57.2053"/>
<polygon fill="#000000" stroke="#000000" points="731.4583,-60.6606 741.8882,-58.7984 732.5735,-53.75 731.4583,-60.6606"/>
</g>
<!-- node27 -->
<g id="node6" class="node">
<title>node27</title>
<ellipse fill="none" stroke="#000000" cx="1253.3047" cy="-36.2039" rx="60.1641" ry="36.4089"/>
<text text-anchor="middle" x="1253.3047" y="-25.4039" font-family="Times,serif" font-size="36.00" fill="#000000">ε-12</text>
</g>
<!-- node25&#45;&gt;node27 -->
<g id="edge5" class="edge">
<title>node25-&gt;node27</title>
<path fill="none" stroke="#000000" d="M699.9517,-25.8346C713.4247,-24.745 727.0916,-23.8139 740.0933,-23.2039 925.2804,-14.5148 972.2508,-10.7472 1157.2227,-23.2039 1166.2263,-23.8102 1175.6725,-24.7327 1184.9811,-25.8123"/>
<polygon fill="#000000" stroke="#000000" points="1184.6494,-29.2977 1195.0004,-27.038 1185.4994,-22.3495 1184.6494,-29.2977"/>
</g>
<!-- node28 -->
<g id="node7" class="node">
<title>node28</title>
<ellipse fill="none" stroke="#000000" cx="1026.74" cy="-68.2039" rx="130.4654" ry="36.4089"/>
<text text-anchor="middle" x="1026.74" y="-57.4039" font-family="Times,serif" font-size="36.00" fill="#000000">range&lt;0-9&gt;</text>
</g>
<!-- node26&#45;&gt;node28 -->
<g id="edge6" class="edge">
<title>node26-&gt;node28</title>
<path fill="none" stroke="#000000" d="M860.2957,-68.2039C868.4871,-68.2039 877.1581,-68.2039 886.0697,-68.2039"/>
<polygon fill="#000000" stroke="#000000" points="886.2207,-71.704 896.2206,-68.2039 886.2206,-64.704 886.2207,-71.704"/>
</g>
<!-- node29 -->
<g id="node8" class="node">
<title>node29</title>
<ellipse fill="none" stroke="#000000" cx="1409.4687" cy="-36.2039" rx="60.1641" ry="36.4089"/>
<text text-anchor="middle" x="1409.4687" y="-25.4039" font-family="Times,serif" font-size="36.00" fill="#000000">ε-13</text>
</g>
<!-- node27&#45;&gt;node29 -->
<g id="edge7" class="edge">
<title>node27-&gt;node29</title>
<path fill="none" stroke="#000000" d="M1313.6818,-36.2039C1321.9804,-36.2039 1330.5607,-36.2039 1339.0203,-36.2039"/>
<polygon fill="#000000" stroke="#000000" points="1339.2523,-39.704 1349.2522,-36.2039 1339.2522,-32.704 1339.2523,-39.704"/>
</g>
<!-- node28&#45;&gt;node27 -->
<g id="edge8" class="edge">
<title>node28-&gt;node27</title>
<path fill="none" stroke="#000000" d="M1143.3408,-51.7352C1157.3717,-49.7535 1171.3346,-47.7813 1184.3677,-45.9405"/>
<polygon fill="#000000" stroke="#000000" points="1185.1919,-49.3589 1194.6041,-44.4947 1184.2129,-42.4277 1185.1919,-49.3589"/>
</g>
<!-- node30 -->
<g id="node9" class="node">
<title>node30</title>
<ellipse fill="none" stroke="#000000" cx="1595.0495" cy="-36.2039" rx="89.4976" ry="36.4089"/>
<text text-anchor="middle" x="1595.0495" y="-25.4039" font-family="Times,serif" font-size="36.00" fill="#000000">text&lt;c&gt;</text>
</g>
<!-- node29&#45;&gt;node30 -->
<g id="edge9" class="edge">
<title>node29-&gt;node30</title>
<path fill="none" stroke="#000000" d="M1469.7215,-36.2039C1477.9371,-36.2039 1486.5423,-36.2039 1495.2302,-36.2039"/>
<polygon fill="#000000" stroke="#000000" points="1495.4486,-39.704 1505.4485,-36.2039 1495.4485,-32.704 1495.4486,-39.704"/>
</g>
<!-- node31 -->
<g id="node10" class="node">
<title>node31</title>
<ellipse fill="none" stroke="#000000" cx="1780.6304" cy="-36.2039" rx="60.1641" ry="36.4089"/>
<text text-anchor="middle" x="1780.6304" y="-25.4039" font-family="Times,serif" font-size="36.00" fill="#000000">ε-14</text>
</g>
<!-- node30&#45;&gt;node31 -->
<g id="edge10" class="edge">
<title>node30-&gt;node31</title>
<path fill="none" stroke="#000000" d="M1684.5784,-36.2039C1693.2107,-36.2039 1701.8808,-36.2039 1710.2891,-36.2039"/>
<polygon fill="#000000" stroke="#000000" points="1710.3956,-39.704 1720.3956,-36.2039 1710.3956,-32.704 1710.3956,-39.704"/>
</g>
<!-- node32 -->
<g id="node11" class="node">
<title>node32</title>
<ellipse fill="none" stroke="#000000" cx="1940.3302" cy="-36.2039" rx="63.7359" ry="36.4089"/>
<text text-anchor="middle" x="1940.3302" y="-25.4039" font-family="Times,serif" font-size="36.00" fill="#000000">END</text>
</g>
<!-- node31&#45;&gt;node32 -->
<g id="edge11" class="edge">
<title>node31-&gt;node32</title>
<path fill="none" stroke="#000000" d="M1841.006,-36.2039C1849.3862,-36.2039 1858.0711,-36.2039 1866.6601,-36.2039"/>
<polygon fill="#000000" stroke="#000000" points="1866.6748,-39.704 1876.6748,-36.2039 1866.6748,-32.704 1866.6748,-39.704"/>
</g>
</g>
</svg>