<?xml version="1.0" encoding="UTF-8" standalone="no"?><!DOCTYPE svg PUBLIC "-//W3C//DTD SVG 1.1//EN" "http://www.w3.org/Graphics/SVG/1.1/DTD/svg11.dtd"><!-- Generated by graphviz version 2.40.1 (20161225.0304)
 --><!-- Title: astgraph Pages: 1 --><svg xmlns="http://www.w3.org/2000/svg" xmlns:xlink="http://www.w3.org/1999/xlink" width="2132pt" height="593pt" viewBox="0.00 0.00 2131.90 593.21">
<g id="graph0" class="graph" transform="scale(1 1) rotate(0) translate(4 589.2077)">
<title>astgraph</title>
<polygon fill="#ffffff" stroke="transparent" points="-4,4 -4,-589.2077 2127.8985,-589.2077 2127.8985,4 -4,4"/>
<text text-anchor="middle" x="1061.9492" y="-568.6077" font-family="Times,serif" font-size="14.00" fill="#000000">dot_expression4</text>
<!-- node33 -->
<g id="node1" class="node">
<title>node33</title>
<ellipse fill="none" stroke="#000000" cx="97.5479" cy="-171.2039" rx="97.5959" ry="36.4089"/>
<text text-anchor="middle" x="97.5479" y="-160.4039" font-family="Times,serif" font-size="36.00" fill="#000000">program</text>
</g>
<!-- node34 -->
<g id="node2" class="node">
<title>node34</title>
<ellipse fill="none" stroke="#000000" cx="342.7692" cy="-235.2039" rx="111.847" ry="36.4089"/>
<text text-anchor="middle" x="342.7692" y="-224.4039" font-family="Times,serif" font-size="36.00" fill="#000000">var_name</text>
</g>
<!-- node33&#45;&gt;node34 -->
<g id="edge1" class="edge">
<title>node33-&gt;node34</title>
<path fill="none" stroke="#000000" d="M177.5032,-192.0713C199.2964,-197.7591 223.1435,-203.9829 245.7722,-209.8887"/>
<polygon fill="#000000" stroke="#000000" points="245.1677,-213.3481 255.7275,-212.487 246.9355,-206.575 245.1677,-213.3481"/>
</g>
<!-- node35 -->
<g id="node3" class="node">
<title>node35</title>
<ellipse fill="none" stroke="#000000" cx="342.7692" cy="-126.2039" rx="87.8322" ry="36.4089"/>
<text text-anchor="middle" x="342.7692" y="-115.4039" font-family="Times,serif" font-size="36.00" fill="#000000">var_list</text>
</g>
<!-- node33&#45;&gt;node35 -->
<g id="edge2" class="edge">
<title>node33-&gt;node35</title>
<path fill="none" stroke="#000000" d="M185.0399,-155.1484C206.8679,-151.1428 230.3178,-146.8396 252.287,-142.808"/>
<polygon fill="#000000" stroke="#000000" points="253.0617,-146.2244 262.2657,-140.9769 251.7982,-139.3394 253.0617,-146.2244"/>
</g>
<!-- node36 -->
<g id="node4" class="node">
<title>node36</title>
<ellipse fill="none" stroke="#000000" cx="550.5246" cy="-299.2039" rx="60.1641" ry="36.4089"/>
<text text-anchor="middle" x="550.5246" y="-288.4039" font-family="Times,serif" font-size="36.00" fill="#000000">ε-15</text>
</g>
<!-- node34&#45;&gt;node36 -->
<g id="edge3" class="edge">
<title>node34-&gt;node36</title>
<path fill="none" stroke="#000000" d="M423.9855,-260.2229C445.0132,-266.7006 467.3432,-273.5794 487.2972,-279.7264"/>
<polygon fill="#000000" stroke="#000000" points="486.2986,-283.081 496.8858,-282.6802 488.3594,-276.3912 486.2986,-283.081"/>
</g>
<!-- node37 -->
<g id="node5" class="node">
<title>node37</title>
<ellipse fill="none" stroke="#000000" cx="550.5246" cy="-126.2039" rx="60.1641" ry="36.4089"/>
<text text-anchor="middle" x="550.5246" y="-115.4039" font-family="Times,serif" font-size="36.00" fill="#000000">ε-23</text>
</g>
<!-- node35&#45;&gt;node37 -->
<g id="edge4" class="edge">
<title>node35-&gt;node37</title>
<path fill="none" stroke="#000000" d="M430.5751,-126.2039C447.1089,-126.2039 464.1994,-126.2039 480.1161,-126.2039"/>
<polygon fill="#000000" stroke="#000000" points="480.3885,-129.704 490.3885,-126.2039 480.3884,-122.704 480.3885,-129.704"/>
</g>
<!-- node38 -->
<g id="node6" class="node">
<title>node38</title>
<ellipse fill="none" stroke="#000000" cx="1304.4251" cy="-36.2039" rx="60.1641" ry="36.4089"/>
<text text-anchor="middle" x="1304.4251" y="-25.4039" font-family="Times,serif" font-size="36.00" fill="#000000">ε-26</text>
</g>
<!-- node35&#45;&gt;node38 -->
<g id="edge5" class="edge">
<title>node35-&gt;node38</title>
<path fill="none" stroke="#000000" d="M408.8354,-102.3611C434.0466,-94.2501 463.261,-86.024 490.4426,-81.2039 762.184,-33.0154 1092.2166,-32.1288 1234.0787,-34.4428"/>
<polygon fill="#000000" stroke="#000000" points="1234.3123,-37.9473 1244.3717,-34.6218 1234.4341,-30.9483 1234.3123,-37.9473"/>
</g>
<!-- node39 -->
<g id="node7" class="node">
<title>node39</title>
<ellipse fill="none" stroke="#000000" cx="758.28" cy="-524.2039" rx="60.1641" ry="36.4089"/>
<text text-anchor="middle" x="758.28" y="-513.4039" font-family="Times,serif" font-size="36.00" fill="#000000">ε-16</text>
</g>
<!-- node36&#45;&gt;node39 -->
<g id="edge6" class="edge">
<title>node36-&gt;node39</title>
<path fill="none" stroke="#000000" d="M561.3302,-335.0113C575.1163,-375.1201 602.5942,-439.6759 646.6066,-479.2039 659.8016,-491.0544 676.5173,-499.9928 692.9705,-506.6477"/>
<polygon fill="#000000" stroke="#000000" points="692.0078,-510.026 702.5989,-510.3068 694.4946,-503.4826 692.0078,-510.026"/>
</g>
<!-- node40 -->
<g id="node8" class="node">
<title>node40</title>
<ellipse fill="none" stroke="#000000" cx="758.28" cy="-434.2039" rx="60.1641" ry="36.4089"/>
<text text-anchor="middle" x="758.28" y="-423.4039" font-family="Times,serif" font-size="36.00" fill="#000000">ε-17</text>
</g>
<!-- node36&#45;&gt;node40 -->
<g id="edge7" class="edge">
<title>node36-&gt;node40</title>
<path fill="none" stroke="#000000" d="M579.2356,-331.5351C597.1721,-350.2638 621.5577,-373.2227 646.6066,-389.2039 661.5582,-398.7429 678.8661,-406.9021 695.326,-413.5481"/>
<polygon fill="#000000" stroke="#000000" points="694.307,-416.9075 704.8951,-417.2854 696.8536,-410.3872 694.307,-416.9075"/>
</g>
<!-- node41 -->
<g id="node9" class="node">
<title>node41</title>
<ellipse fill="none" stroke="#000000" cx="758.28" cy="-344.2039" rx="60.1641" ry="36.4089"/>
<text text-anchor="middle" x="758.28" y="-333.4039" font-family="Times,serif" font-size="36.00" fill="#000000">ε-18</text>
</g>
<!-- node36&#45;&gt;node41 -->
<g id="edge8" class="edge">
<title>node36-&gt;node41</title>
<path fill="none" stroke="#000000" d="M607.2947,-311.5003C633.403,-317.1554 664.5482,-323.9015 691.7514,-329.7937"/>
<polygon fill="#000000" stroke="#000000" points="691.0643,-333.226 701.5786,-331.9223 692.5462,-326.3846 691.0643,-333.226"/>
</g>
<!-- node42 -->
<g id="node10" class="node">
<title>node42</title>
<ellipse fill="none" stroke="#000000" cx="758.28" cy="-254.2039" rx="60.1641" ry="36.4089"/>
<text text-anchor="middle" x="758.28" y="-243.4039" font-family="Times,serif" font-size="36.00" fill="#000000">ε-19</text>
</g>
<!-- node36&#45;&gt;node42 -->
<g id="edge9" class="edge">
<title>node36-&gt;node42</title>
<path fill="none" stroke="#000000" d="M607.2947,-286.9074C633.403,-281.2523 664.5482,-274.5062 691.7514,-268.614"/>
<polygon fill="#000000" stroke="#000000" points="692.5462,-272.0231 701.5786,-266.4854 691.0643,-265.1818 692.5462,-272.0231"/>
</g>
<!-- node43 -->
<g id="node11" class="node">
<title>node43</title>
<ellipse fill="none" stroke="#000000" cx="758.28" cy="-126.2039" rx="111.847" ry="36.4089"/>
<text text-anchor="middle" x="758.28" y="-115.4039" font-family="Times,serif" font-size="36.00" fill="#000000">var_name</text>
</g>
<!-- node37&#45;&gt;node43 -->
<g id="edge10" class="edge">
<title>node37-&gt;node43</title>
<path fill="none" stroke="#000000" d="M610.6161,-126.2039C618.8008,-126.2039 627.4294,-126.2039 636.2378,-126.2039"/>
<polygon fill="#000000" stroke="#000000" points="636.2452,-129.704 646.2452,-126.2039 636.2452,-122.704 636.2452,-129.704"/>
</g>
<!-- node44 -->
<g id="node12" class="node">
<title>node44</title>
<ellipse fill="none" stroke="#000000" cx="1692.8254" cy="-36.2039" rx="111.847" ry="36.4089"/>
<text text-anchor="middle" x="1692.8254" y="-25.4039" font-family="Times,serif" font-size="36.00" fill="#000000">var_name</text>
</g>
<!-- node38&#45;&gt;node44 -->
<g id="edge11" class="edge">
<title>node38-&gt;node44</title>
<path fill="none" stroke="#000000" d="M1364.6865,-36.2039C1419.6216,-36.2039 1502.4364,-36.2039 1571.1233,-36.2039"/>
<polygon fill="#000000" stroke="#000000" points="1571.15,-39.704 1581.1499,-36.2039 1571.1499,-32.704 1571.15,-39.704"/>
</g>
<!-- node45 -->
<g id="node13" class="node">
<title>node45</title>
<ellipse fill="none" stroke="#000000" cx="1044.9078" cy="-524.2039" rx="127.7532" ry="36.4089"/>
<text text-anchor="middle" x="1044.9078" y="-513.4039" font-family="Times,serif" font-size="36.00" fill="#000000">range&lt;a-z&gt;</text>
</g>
<!-- node39&#45;&gt;node45 -->
<g id="edge12" class="edge">
<title>node39-&gt;node45</title>
<path fill="none" stroke="#000000" d="M818.3666,-524.2039C844.2887,-524.2039 875.7701,-524.2039 906.9158,-524.2039"/>
<polygon fill="#000000" stroke="#000000" points="907.0089,-527.704 917.0088,-524.2039 907.0088,-520.704 907.0089,-527.704"/>
</g>
<!-- node46 -->
<g id="node14" class="node">
<title>node46</title>
<ellipse fill="none" stroke="#000000" cx="1044.9078" cy="-434.2039" rx="138.9088" ry="36.4089"/>
<text text-anchor="middle" x="1044.9078" y="-423.4039" font-family="Times,serif" font-size="36.00" fill="#000000">range&lt;A-Z&gt;</text>
</g>
<!-- node40&#45;&gt;node46 -->
<g id="edge13" class="edge">
<title>node40-&gt;node46</title>
<path fill="none" stroke="#000000" d="M818.3666,-434.2039C841.1742,-434.2039 868.2854,-434.2039 895.6852,-434.2039"/>
<polygon fill="#000000" stroke="#000000" points="895.7855,-437.704 905.7854,-434.2039 895.7854,-430.704 895.7855,-437.704"/>
</g>
<!-- node47 -->
<g id="node15" class="node">
<title>node47</title>
<ellipse fill="none" stroke="#000000" cx="1044.9078" cy="-344.2039" rx="90.8538" ry="36.4089"/>
<text text-anchor="middle" x="1044.9078" y="-333.4039" font-family="Times,serif" font-size="36.00" fill="#000000">text&lt;_&gt;</text>
</g>
<!-- node41&#45;&gt;node47 -->
<g id="edge14" class="edge">
<title>node41-&gt;node47</title>
<path fill="none" stroke="#000000" d="M818.3666,-344.2039C854.6116,-344.2039 901.7255,-344.2039 943.5936,-344.2039"/>
<polygon fill="#000000" stroke="#000000" points="943.8339,-347.704 953.8339,-344.2039 943.8339,-340.704 943.8339,-347.704"/>
</g>
<!-- node48 -->
<g id="node16" class="node">
<title>node48</title>
<ellipse fill="none" stroke="#000000" cx="1044.9078" cy="-254.2039" rx="130.4654" ry="36.4089"/>
<text text-anchor="middle" x="1044.9078" y="-243.4039" font-family="Times,serif" font-size="36.00" fill="#000000">range&lt;0-9&gt;</text>
</g>
<!-- node42&#45;&gt;node48 -->
<g id="edge15" class="edge">
<title>node42-&gt;node48</title>
<path fill="none" stroke="#000000" d="M818.3666,-254.2039C843.5128,-254.2039 873.8904,-254.2039 904.1183,-254.2039"/>
<polygon fill="#000000" stroke="#000000" points="904.3561,-257.704 914.356,-254.2039 904.356,-250.704 904.3561,-257.704"/>
</g>
<!-- node49 -->
<g id="node17" class="node">
<title>node49</title>
<ellipse fill="none" stroke="#000000" cx="1044.9078" cy="-126.2039" rx="60.1641" ry="36.4089"/>
<text text-anchor="middle" x="1044.9078" y="-115.4039" font-family="Times,serif" font-size="36.00" fill="#000000">ε-24</text>
</g>
<!-- node43&#45;&gt;node49 -->
<g id="edge16" class="edge">
<title>node43-&gt;node49</title>
<path fill="none" stroke="#000000" d="M870.3293,-126.2039C905.3138,-126.2039 942.9112,-126.2039 974.2219,-126.2039"/>
<polygon fill="#000000" stroke="#000000" points="974.5864,-129.704 984.5864,-126.2039 974.5864,-122.704 974.5864,-129.704"/>
</g>
<!-- node50 -->
<g id="node18" class="node">
<title>node50</title>
<ellipse fill="none" stroke="#000000" cx="1900.5808" cy="-126.2039" rx="60.1641" ry="36.4089"/>
<text text-anchor="middle" x="1900.5808" y="-115.4039" font-family="Times,serif" font-size="36.00" fill="#000000">ε-27</text>
</g>
<!-- node44&#45;&gt;node50 -->
<g id="edge17" class="edge">
<title>node44-&gt;node50</title>
<path fill="none" stroke="#000000" d="M1763.9608,-64.1875C1777.4776,-69.6971 1791.466,-75.5312 1804.4988,-81.2039 1817.4098,-86.8236 1831.1777,-93.0997 1844.1394,-99.1391"/>
<polygon fill="#000000" stroke="#000000" points="1842.8708,-102.4098 1853.4113,-103.4821 1845.8401,-96.0708 1842.8708,-102.4098"/>
</g>
<!-- node51 -->
<g id="node19" class="node">
<title>node51</title>
<ellipse fill="none" stroke="#000000" cx="1304.4251" cy="-344.2039" rx="60.1641" ry="36.4089"/>
<text text-anchor="middle" x="1304.4251" y="-333.4039" font-family="Times,serif" font-size="36.00" fill="#000000">ε-20</text>
</g>
<!-- node45&#45;&gt;node51 -->
<g id="edge18" class="edge">
<title>node45-&gt;node51</title>
<path fill="none" stroke="#000000" d="M1141.3954,-500.3504C1156.2296,-494.6237 1170.9026,-487.6485 1183.8622,-479.2039 1221.2829,-454.82 1254.3161,-415.8965 1276.2981,-386.0955"/>
<polygon fill="#000000" stroke="#000000" points="1279.1658,-388.1029 1282.1996,-377.9517 1273.4976,-383.9954 1279.1658,-388.1029"/>
</g>
<!-- node46&#45;&gt;node51 -->
<g id="edge19" class="edge">
<title>node46-&gt;node51</title>
<path fill="none" stroke="#000000" d="M1133.313,-406.2198C1150.1418,-400.7103 1167.5788,-394.8763 1183.8622,-389.2039 1203.5353,-382.3506 1224.8722,-374.5195 1244.0508,-367.3323"/>
<polygon fill="#000000" stroke="#000000" points="1245.4407,-370.549 1253.5682,-363.7524 1242.9762,-363.9971 1245.4407,-370.549"/>
</g>
<!-- node47&#45;&gt;node51 -->
<g id="edge20" class="edge">
<title>node47-&gt;node51</title>
<path fill="none" stroke="#000000" d="M1136.039,-344.2039C1168.187,-344.2039 1203.8155,-344.2039 1233.9901,-344.2039"/>
<polygon fill="#000000" stroke="#000000" points="1234.0013,-347.704 1244.0013,-344.2039 1234.0012,-340.704 1234.0013,-347.704"/>
</g>
<!-- node48&#45;&gt;node51 -->
<g id="edge21" class="edge">
<title>node48-&gt;node51</title>
<path fill="none" stroke="#000000" d="M1131.0893,-281.4606C1148.601,-287.1823 1166.8604,-293.2812 1183.8622,-299.2039 1203.5353,-306.0572 1224.8722,-313.8882 1244.0508,-321.0755"/>
<polygon fill="#000000" stroke="#000000" points="1242.9762,-324.4106 1253.5682,-324.6554 1245.4407,-317.8588 1242.9762,-324.4106"/>
</g>
<!-- node52 -->
<g id="node20" class="node">
<title>node52</title>
<ellipse fill="none" stroke="#000000" cx="1304.4251" cy="-126.2039" rx="84.6258" ry="36.4089"/>
<text text-anchor="middle" x="1304.4251" y="-115.4039" font-family="Times,serif" font-size="36.00" fill="#000000">text&lt;,&gt;</text>
</g>
<!-- node49&#45;&gt;node52 -->
<g id="edge22" class="edge">
<title>node49-&gt;node52</title>
<path fill="none" stroke="#000000" d="M1105.0986,-126.2039C1136.0345,-126.2039 1174.4606,-126.2039 1209.2944,-126.2039"/>
<polygon fill="#000000" stroke="#000000" points="1209.4944,-129.704 1219.4943,-126.2039 1209.4943,-122.704 1209.4944,-129.704"/>
</g>
<!-- node53 -->
<g id="node21" class="node">
<title>node53</title>
<ellipse fill="none" stroke="#000000" cx="2060.2806" cy="-171.2039" rx="63.7359" ry="36.4089"/>
<text text-anchor="middle" x="2060.2806" y="-160.4039" font-family="Times,serif" font-size="36.00" fill="#000000">END</text>
</g>
<!-- node50&#45;&gt;node53 -->
<g id="edge23" class="edge">
<title>node50-&gt;node53</title>
<path fill="none" stroke="#000000" d="M1955.0937,-141.5645C1967.4066,-145.0339 1980.6161,-148.7561 1993.3728,-152.3507"/>
<polygon fill="#000000" stroke="#000000" points="1992.4429,-155.7249 2003.0174,-155.0683 1994.3415,-148.9873 1992.4429,-155.7249"/>
</g>
<!-- node54 -->
<g id="node22" class="node">
<title>node54</title>
<ellipse fill="none" stroke="#000000" cx="1485.07" cy="-216.2039" rx="60.1641" ry="36.4089"/>
<text text-anchor="middle" x="1485.07" y="-205.4039" font-family="Times,serif" font-size="36.00" fill="#000000">ε-21</text>
</g>
<!-- node51&#45;&gt;node54 -->
<g id="edge24" class="edge">
<title>node51-&gt;node54</title>
<path fill="none" stroke="#000000" d="M1343.6223,-316.4298C1371.2003,-296.8888 1408.2595,-270.6297 1437.5266,-249.8918"/>
<polygon fill="#000000" stroke="#000000" points="1439.8134,-252.561 1445.9492,-243.9238 1435.7664,-246.8495 1439.8134,-252.561"/>
</g>
<!-- node55 -->
<g id="node23" class="node">
<title>node55</title>
<ellipse fill="none" stroke="#000000" cx="1485.07" cy="-126.2039" rx="60.1641" ry="36.4089"/>
<text text-anchor="middle" x="1485.07" y="-115.4039" font-family="Times,serif" font-size="36.00" fill="#000000">ε-25</text>
</g>
<!-- node52&#45;&gt;node55 -->
<g id="edge25" class="edge">
<title>node52-&gt;node55</title>
<path fill="none" stroke="#000000" d="M1389.1937,-126.2039C1397.7311,-126.2039 1406.3349,-126.2039 1414.6985,-126.2039"/>
<polygon fill="#000000" stroke="#000000" points="1414.7605,-129.704 1424.7604,-126.2039 1414.7604,-122.704 1414.7605,-129.704"/>
</g>
<!-- node54&#45;&gt;node36 -->
<g id="edge26" class="edge">
<title>node54-&gt;node36</title>
<path fill="none" stroke="#000000" d="M1425.8669,-210.018C1259.0916,-193.4837 788.3354,-153.1925 646.6066,-209.2039 621.3118,-219.2004 598.7719,-239.3505 581.8913,-258.0544"/>
<polygon fill="#000000" stroke="#000000" points="578.9435,-256.1097 575.0118,-265.948 584.2206,-260.7089 578.9435,-256.1097"/>
</g>
<!-- node56 -->
<g id="node24" class="node">
<title>node56</title>
<ellipse fill="none" stroke="#000000" cx="1900.5808" cy="-216.2039" rx="60.1641" ry="36.4089"/>
<text text-anchor="middle" x="1900.5808" y="-205.4039" font-family="Times,serif" font-size="36.00" fill="#000000">ε-22</text>
</g>
<!-- node54&#45;&gt;node56 -->
<g id="edge27" class="edge">
<title>node54-&gt;node56</title>
<path fill="none" stroke="#000000" d="M1545.4888,-216.2039C1620.9895,-216.2039 1749.9764,-216.2039 1829.9589,-216.2039"/>
<polygon fill="#000000" stroke="#000000" points="1830.4265,-219.704 1840.4264,-216.2039 1830.4264,-212.704 1830.4265,-219.704"/>
</g>
<!-- node57 -->
<g id="node25" class="node">
<title>node57</title>
<ellipse fill="none" stroke="#000000" cx="1692.8254" cy="-126.2039" rx="87.8322" ry="36.4089"/>
<text text-anchor="middle" x="1692.8254" y="-115.4039" font-family="Times,serif" font-size="36.00" fill="#000000">var_list</text>
</g>
<!-- node55&#45;&gt;node57 -->
<g id="edge28" class="edge">
<title>node55-&gt;node57</title>
<path fill="none" stroke="#000000" d="M1545.1615,-126.2039C1560.6433,-126.2039 1577.7134,-126.2039 1594.5847,-126.2039"/>
<polygon fill="#000000" stroke="#000000" points="1595.0478,-129.704 1605.0478,-126.2039 1595.0477,-122.704 1595.0478,-129.704"/>
</g>
<!-- node56&#45;&gt;node53 -->
<g id="edge29" class="edge">
<title>node56-&gt;node53</title>
<path fill="none" stroke="#000000" d="M1955.0937,-200.8433C1967.4066,-197.3738 1980.6161,-193.6516 1993.3728,-190.057"/>
<polygon fill="#000000" stroke="#000000" points="1994.3415,-193.4205 2003.0174,-187.3394 1992.4429,-186.6828 1994.3415,-193.4205"/>
</g>
<!-- node57&#45;&gt;node50 -->
<g id="edge30" class="edge">
<title>node57-&gt;node50</title>
<path fill="none" stroke="#000000" d="M1780.6312,-126.2039C1797.165,-126.2039 1814.2555,-126.2039 1830.1722,-126.2039"/>
<polygon fill="#000000" stroke="#000000" points="1830.4447,-129.704 1840.4446,-126.2039 1830.4446,-122.704 1830.4447,-129.704"/>
</g>
</g>
</svg>