<?xml version="1.0" encoding="UTF-8" standalone="no"?><!DOCTYPE svg PUBLIC "-//W3C//DTD SVG 1.1//EN" "http://www.w3.org/Graphics/SVG/1.1/DTD/svg11.dtd"><!-- Generated by graphviz version 2.40.1 (20161225.0304)
 --><!-- Title: astgraph Pages: 1 --><svg xmlns="http://www.w3.org/2000/svg" xmlns:xlink="http://www.w3.org/1999/xlink" width="1885pt" height="137pt" viewBox="0.00 0.00 1884.67 137.21">
<g id="graph0" class="graph" transform="scale(1 1) rotate(0) translate(4 133.2077)">
<title>astgraph</title>
<polygon fill="#ffffff" stroke="transparent" points="-4,4 -4,-133.2077 1880.6688,-133.2077 1880.6688,4 -4,4"/>
<text text-anchor="middle" x="938.3344" y="-112.6077" font-family="Times,serif" font-size="14.00" fill="#000000">dot_expression1</text>
<!-- node0 -->
<g id="node1" class="node">
<title>node0</title>
<ellipse fill="none" stroke="#000000" cx="97.5479" cy="-36.2039" rx="97.5959" ry="36.4089"/>
<text text-anchor="middle" x="97.5479" y="-25.4039" font-family="Times,serif" font-size="36.00" fill="#000000">program</text>
</g>
<!-- node1 -->
<g id="node2" class="node">
<title>node1</title>
<ellipse fill="none" stroke="#000000" cx="269.2858" cy="-36.2039" rx="38.3809" ry="36.4089"/>
<text text-anchor="middle" x="269.2858" y="-25.4039" font-family="Times,serif" font-size="36.00" fill="#000000">int</text>
</g>
<!-- node0&#45;&gt;node1 -->
<g id="edge1" class="edge">
<title>node0-&gt;node1</title>
<path fill="none" stroke="#000000" d="M195.4568,-36.2039C204.1512,-36.2039 212.6776,-36.2039 220.6699,-36.2039"/>
<polygon fill="#000000" stroke="#000000" points="220.8381,-39.704 230.8381,-36.2039 220.838,-32.704 220.8381,-39.704"/>
</g>
<!-- node2 -->
<g id="node3" class="node">
<title>node2</title>
<ellipse fill="none" stroke="#000000" cx="390.8299" cy="-36.2039" rx="47.2086" ry="36.4089"/>
<text text-anchor="middle" x="390.8299" y="-25.4039" font-family="Times,serif" font-size="36.00" fill="#000000">ε-0</text>
</g>
<!-- node1&#45;&gt;node2 -->
<g id="edge2" class="edge">
<title>node1-&gt;node2</title>
<path fill="none" stroke="#000000" d="M307.7431,-36.2039C315.8412,-36.2039 324.553,-36.2039 333.1808,-36.2039"/>
<polygon fill="#000000" stroke="#000000" points="333.2285,-39.704 343.2285,-36.2039 333.2284,-32.704 333.2285,-39.704"/>
</g>
<!-- node3 -->
<g id="node4" class="node">
<title>node3</title>
<ellipse fill="none" stroke="#000000" cx="576.4107" cy="-36.2039" rx="102.4539" ry="36.4089"/>
<text text-anchor="middle" x="576.4107" y="-25.4039" font-family="Times,serif" font-size="36.00" fill="#000000">text&lt;ab&gt;</text>
</g>
<!-- node2&#45;&gt;node3 -->
<g id="edge3" class="edge">
<title>node2-&gt;node3</title>
<path fill="none" stroke="#000000" d="M438.6216,-36.2039C446.5806,-36.2039 455.1223,-36.2039 463.9114,-36.2039"/>
<polygon fill="#000000" stroke="#000000" points="463.9219,-39.704 473.9218,-36.2039 463.9218,-32.704 463.9219,-39.704"/>
</g>
<!-- node4 -->
<g id="node5" class="node">
<title>node4</title>
<ellipse fill="none" stroke="#000000" cx="761.9915" cy="-36.2039" rx="47.2086" ry="36.4089"/>
<text text-anchor="middle" x="761.9915" y="-25.4039" font-family="Times,serif" font-size="36.00" fill="#000000">ε-1</text>
</g>
<!-- node3&#45;&gt;node4 -->
<g id="edge4" class="edge">
<title>node3-&gt;node4</title>
<path fill="none" stroke="#000000" d="M678.7009,-36.2039C687.445,-36.2039 696.0753,-36.2039 704.2769,-36.2039"/>
<polygon fill="#000000" stroke="#000000" points="704.4127,-39.704 714.4126,-36.2039 704.4126,-32.704 704.4127,-39.704"/>
</g>
<!-- node5 -->
<g id="node6" class="node">
<title>node5</title>
<ellipse fill="none" stroke="#000000" cx="975.8283" cy="-68.2039" rx="130.4654" ry="36.4089"/>
<text text-anchor="middle" x="975.8283" y="-57.4039" font-family="Times,serif" font-size="36.00" fill="#000000">range&lt;0-9&gt;</text>
</g>
<!-- node4&#45;&gt;node5 -->
<g id="edge5" class="edge">
<title>node4-&gt;node5</title>
<path fill="none" stroke="#000000" d="M808.6547,-43.1869C821.4572,-45.1027 835.9711,-47.2747 850.9699,-49.5192"/>
<polygon fill="#000000" stroke="#000000" points="850.4753,-52.9841 860.8832,-51.0027 851.5114,-46.0612 850.4753,-52.9841"/>
</g>
<!-- node6 -->
<g id="node7" class="node">
<title>node6</title>
<ellipse fill="none" stroke="#000000" cx="1189.6651" cy="-36.2039" rx="47.2086" ry="36.4089"/>
<text text-anchor="middle" x="1189.6651" y="-25.4039" font-family="Times,serif" font-size="36.00" fill="#000000">ε-2</text>
</g>
<!-- node5&#45;&gt;node6 -->
<g id="edge6" class="edge">
<title>node5-&gt;node6</title>
<path fill="none" stroke="#000000" d="M1090.8839,-50.9862C1105.4704,-48.8033 1119.8537,-46.6509 1132.9395,-44.6927"/>
<polygon fill="#000000" stroke="#000000" points="1133.7631,-48.1085 1143.1349,-43.167 1132.727,-41.1856 1133.7631,-48.1085"/>
</g>
<!-- node6&#45;&gt;node4 -->
<g id="edge7" class="edge">
<title>node6-&gt;node4</title>
<path fill="none" stroke="#000000" d="M1143.5202,-27.7044C1131.4539,-25.8401 1118.431,-24.1433 1106.311,-23.2039 990.6733,-14.2405 960.9834,-14.2405 845.3456,-23.2039 836.5397,-23.8864 827.2572,-24.9688 818.2111,-26.2247"/>
<polygon fill="#000000" stroke="#000000" points="817.5217,-22.7884 808.1364,-27.7044 818.5389,-29.7141 817.5217,-22.7884"/>
</g>
<!-- node7 -->
<g id="node8" class="node">
<title>node7</title>
<ellipse fill="none" stroke="#000000" cx="1320.3733" cy="-36.2039" rx="47.2086" ry="36.4089"/>
<text text-anchor="middle" x="1320.3733" y="-25.4039" font-family="Times,serif" font-size="36.00" fill="#000000">ε-3</text>
</g>
<!-- node6&#45;&gt;node7 -->
<g id="edge8" class="edge">
<title>node6-&gt;node7</title>
<path fill="none" stroke="#000000" d="M1237.2235,-36.2039C1245.4227,-36.2039 1254.0265,-36.2039 1262.4626,-36.2039"/>
<polygon fill="#000000" stroke="#000000" points="1262.6313,-39.704 1272.6313,-36.2039 1262.6312,-32.704 1262.6313,-39.704"/>
</g>
<!-- node8 -->
<g id="node9" class="node">
<title>node8</title>
<ellipse fill="none" stroke="#000000" cx="1493.2262" cy="-36.2039" rx="89.4976" ry="36.4089"/>
<text text-anchor="middle" x="1493.2262" y="-25.4039" font-family="Times,serif" font-size="36.00" fill="#000000">text&lt;c&gt;</text>
</g>
<!-- node7&#45;&gt;node8 -->
<g id="edge9" class="edge">
<title>node7-&gt;node8</title>
<path fill="none" stroke="#000000" d="M1368.0637,-36.2039C1376.1228,-36.2039 1384.7484,-36.2039 1393.5622,-36.2039"/>
<polygon fill="#000000" stroke="#000000" points="1393.5731,-39.704 1403.5731,-36.2039 1393.573,-32.704 1393.5731,-39.704"/>
</g>
<!-- node9 -->
<g id="node10" class="node">
<title>node9</title>
<ellipse fill="none" stroke="#000000" cx="1666.0791" cy="-36.2039" rx="47.2086" ry="36.4089"/>
<text text-anchor="middle" x="1666.0791" y="-25.4039" font-family="Times,serif" font-size="36.00" fill="#000000">ε-4</text>
</g>
<!-- node8&#45;&gt;node9 -->
<g id="edge10" class="edge">
<title>node8-&gt;node9</title>
<path fill="none" stroke="#000000" d="M1582.9435,-36.2039C1591.6136,-36.2039 1600.2394,-36.2039 1608.4713,-36.2039"/>
<polygon fill="#000000" stroke="#000000" points="1608.6614,-39.704 1618.6614,-36.2039 1608.6614,-32.704 1608.6614,-39.704"/>
</g>
<!-- node10 -->
<g id="node11" class="node">
<title>node10</title>
<ellipse fill="none" stroke="#000000" cx="1813.051" cy="-36.2039" rx="63.7359" ry="36.4089"/>
<text text-anchor="middle" x="1813.051" y="-25.4039" font-family="Times,serif" font-size="36.00" fill="#000000">END</text>
</g>
<!-- node9&#45;&gt;node10 -->
<g id="edge11" class="edge">
<title>node9-&gt;node10</title>
<path fill="none" stroke="#000000" d="M1713.7966,-36.2039C1721.9296,-36.2039 1730.5447,-36.2039 1739.1672,-36.2039"/>
<polygon fill="#000000" stroke="#000000" points="1739.2641,-39.704 1749.264,-36.2039 1739.264,-32.704 1739.2641,-39.704"/>
</g>
</g>
</svg>